<svg xmlns="http://www.w3.org/2000/svg" width="216" height="198" viewBox="0 0 216 198">
<g>
<path d="M 98.85,57.41 L 99.31,58.21 L 99.68,59.25 L 99.87,59.96 L 100.25,61.50 L 100.44,62.39 L 100.80,64.26 L 100.96,65.25 L 101.55,69.03 L 101.90,71.08 L 102.06,71.91 L 102.39,73.45 L 102.55,74.06 L 102.90,75.21 L 103.10,75.66 L 103.98,77.24 L 104.64,77.87 L 105.34,78.48 L 105.78,78.80 L 106.70,79.47 L 107.26,79.85 L 111.54,83.06 L 114.35,85.41 L 115.73,86.68 L 121.19,92.02 L 123.79,95.02 L 128.90,101.24 L 129.14,101.58 L 124.89,96.38 L 118.09,89.15 L 116.40,87.51 L 112.87,84.40 L 111.14,82.91 L 108.00,80.44 L 107.27,79.89 L 105.99,78.98 L 105.38,78.56 L 104.41,77.97 L 103.97,77.73 L 103.38,77.52 L 103.02,77.70 L 103.02,77.76 L 103.10,78.34 L 103.16,78.71 L 103.33,79.87 L 103.43,80.51 L 103.70,82.17 L 103.84,83.06 L 104.17,85.17 L 104.35,86.27 L 104.75,88.75 L 104.95,90.03 L 105.41,92.81 L 106.91,102.00 L 107.24,104.03 L 107.88,107.77 L 108.19,109.59 L 108.79,112.90 L 109.09,114.50 L 109.66,117.41 L 109.94,118.81 L 110.47,121.33 L 110.74,122.54 L 111.25,124.68 L 111.50,125.71 L 111.98,127.50 L 112.23,128.36 L 112.69,129.81 L 113.38,131.64 L 114.11,133.36 L 115.16,136.87 L 115.61,138.62 L 116.07,142.01 L 116.23,143.66 L 116.09,146.68 L 115.19,150.55 L 114.99,151.01 L 114.36,151.98 L 114.00,152.46 L 113.09,153.44 L 112.12,154.40 L 109.65,156.17 L 108.37,156.99 L 105.71,158.20 L 105.06,158.45 L 103.81,158.79 L 102.11,159.00 L 100.88,159.00 L 98.36,158.40 L 97.10,158.02 L 94.57,156.71 L 93.31,155.99 L 90.85,154.08 L 89.64,153.06 L 87.34,150.65 L 86.21,149.38 L 84.16,146.56 L 83.18,145.11 L 81.46,141.97 L 80.65,140.37 L 79.36,137.02 L 77.98,131.87 L 77.69,130.28 L 77.53,127.40 L 77.51,126.01 L 77.92,123.50 L 78.20,122.28 L 79.18,120.08 L 81.34,117.08 L 81.82,116.55 L 82.70,114.92 L 82.92,114.43 L 83.36,113.21 L 83.59,112.55 L 84.06,110.92 L 84.30,110.04 L 84.83,107.91 L 85.10,106.77 L 85.70,104.04 L 86.01,102.60 L 86.71,99.20 L 87.91,93.24 L 88.49,90.32 L 89.49,84.91 L 89.73,83.62 L 90.16,81.22 L 90.36,80.06 L 90.71,77.96 L 90.88,76.96 L 91.14,75.23 L 91.26,74.41 L 91.44,73.11 L 91.51,72.52 L 91.58,71.70 L 91.55,71.08 L 91.42,70.86 L 90.80,70.40 L 90.60,70.28 L 91.96,70.79 L 92.98,67.15 L 93.69,64.10 L 93.86,63.19 L 93.91,62.81 L 93.99,62.12 L 93.99,61.90 L 94.57,60.24 L 95.41,59.09 L 95.94,58.60 L 97.03,57.71 L 97.54,57.49 L 98.52,57.21 M 153.73,157.02 L 153.80,157.63 L 153.12,154.18 M 151.15,145.54 L 151.46,146.79 L 150.56,143.73 M 147.21,133.92 L 147.61,135.04 L 146.93,133.28 M 81.71,67.54 L 83.64,67.91 L 84.53,68.14 L 84.86,68.23 L 83.89,67.98 L 81.05,67.48 M 70.06,67.71 L 70.07,67.71 L 70.60,67.50 M 70.61,67.50 L 70.63,67.49 L 70.87,67.42 M 71.84,67.15 L 71.85,67.15 L 72.04,67.13 M 77.20,67.11 L 75.87,67.00 L 76.04,67.00 M 70.05,67.72 L 69.16,68.47 L 67.69,70.25 L 69.16,68.46 Z" fill="rgba(87,110,120,1)"/>
<path d="M 132.29,105.89 L 133.55,107.71 L 136.00,111.34 L 137.09,113.12 L 139.17,116.66 L 140.04,118.35 L 143.50,125.10 L 148.50,124.58 L 150.88,124.25 L 152.70,123.94 L 153.65,123.75 L 155.56,123.35 L 156.47,123.13 L 158.24,122.69 L 159.00,122.47 L 164.10,121.12 L 165.82,120.71 L 166.60,120.54 L 168.07,120.22 L 168.64,120.11 L 170.63,119.57 L 172.17,119.01 L 172.99,118.66 L 176.30,117.09 L 177.64,116.24 L 181.88,113.74 L 183.22,113.02 L 183.80,112.74 L 184.87,112.23 L 185.25,112.09 L 187.19,111.05 L 187.64,110.67 L 187.78,110.49 L 188.00,110.15 L 188.00,110.00 L 187.69,108.99 L 187.36,108.20 L 187.89,109.26 L 190.41,114.82 L 191.63,117.60 L 193.86,123.17 L 194.93,125.95 L 196.85,131.49 L 197.77,134.24 L 199.37,139.70 L 200.13,142.41 L 201.39,147.74 L 201.98,150.38 L 202.91,155.53 L 203.32,158.09 L 203.88,163.02 L 204.31,170.14 L 204.50,179.29 L 197.31,183.56 L 196.32,184.15 L 194.38,185.26 L 193.43,185.79 L 191.70,186.73 L 190.89,187.16 L 189.58,187.81 L 188.31,188.36 L 188.17,188.40 L 187.64,188.32 L 187.34,188.26 L 186.50,187.97 L 186.04,187.81 L 184.91,187.32 L 184.31,187.05 L 182.89,186.37 L 182.15,186.01 L 180.46,185.14 L 179.59,184.68 L 177.64,183.63 L 176.64,183.08 L 174.46,181.85 L 173.33,181.22 L 170.92,179.82 L 155.34,170.75 L 154.16,160.74 L 153.73,157.02 L 152.09,149.38 L 151.15,145.54 L 148.60,137.79 L 147.21,133.92 L 143.85,126.27 L 142.08,122.48 L 138.02,115.11 L 135.92,111.48 L 131.28,104.60 L 130.69,103.77 M 170.26,77.83 L 171.10,79.08 L 172.59,81.30 L 173.30,82.38 L 174.58,84.35 L 175.83,86.30 L 178.05,90.10 L 178.62,91.09 L 179.79,93.25 L 180.39,94.36 L 181.69,96.88 L 182.37,98.20 L 182.39,98.25 L 179.57,93.05 L 176.49,87.75 L 174.89,85.19 L 171.66,80.11 L 169.98,77.66 L 167.10,73.54 M 152.93,55.99 L 156.02,59.33 L 161.91,66.47 L 165.03,70.72 L 164.85,70.48 L 161.33,65.87 L 159.52,63.66 L 155.87,59.30 L 154.00,57.22 L 151.89,54.91 M 146.66,49.48 L 147.61,50.47 L 145.96,48.83 M 105.81,21.15 L 105.91,21.19 L 105.53,21.04 M 55.70,20.00 L 54.85,20.39 L 55.70,20.00 L 55.75,20.00 L 56.23,19.83 L 55.75,20.00 M 97.16,17.93 L 94.00,16.93 L 91.81,16.37 L 95.29,17.26 Z" fill="rgba(90,195,91,1)"/>
<path d="M 132.41,36.98 L 136.47,40.26 L 138.49,41.94 L 142.46,45.50 L 144.44,47.32 L 148.31,51.16 L 150.23,53.11 L 154.00,57.22 L 155.87,59.30 L 159.52,63.66 L 161.33,65.87 L 164.85,70.48 L 166.60,72.81 L 169.98,77.66 L 171.66,80.11 L 174.89,85.19 L 176.49,87.75 L 179.57,93.05 L 184.01,101.23 L 184.56,102.29 L 185.56,104.31 L 186.04,105.29 L 186.83,106.99 L 187.19,107.79 L 187.69,108.99 L 188.00,110.00 L 188.00,110.15 L 187.78,110.49 L 187.64,110.67 L 187.19,111.05 L 185.25,112.09 L 184.87,112.23 L 183.80,112.74 L 183.22,113.02 L 181.88,113.74 L 177.64,116.24 L 176.30,117.09 L 172.99,118.66 L 172.17,119.01 L 170.63,119.57 L 168.64,120.11 L 168.07,120.22 L 166.60,120.54 L 165.82,120.71 L 164.10,121.12 L 159.00,122.47 L 158.24,122.69 L 156.47,123.13 L 155.56,123.35 L 153.65,123.75 L 152.70,123.94 L 150.88,124.25 L 148.50,124.58 L 143.50,125.10 L 140.04,118.35 L 139.17,116.66 L 137.09,113.12 L 136.00,111.34 L 133.55,107.71 L 132.29,105.89 L 129.56,102.26 L 128.16,100.45 L 125.23,96.92 L 123.74,95.18 L 120.70,91.86 L 119.18,90.24 L 116.11,87.22 L 114.58,85.77 L 114.26,85.49 L 114.80,85.86 L 115.22,86.08 L 116.00,86.45 L 116.29,86.51 L 116.79,86.54 L 116.90,86.41 L 117.15,85.98 L 117.38,85.47 L 117.52,85.11 L 118.19,83.41 L 118.61,82.24 L 119.51,79.71 L 120.01,78.23 L 121.04,75.15 L 121.56,73.50 L 123.16,68.62 L 124.08,65.92 L 124.49,64.80 L 125.29,62.72 L 125.67,61.87 L 126.42,60.30 L 126.80,59.66 L 127.57,58.48 L 127.99,57.99 L 128.85,57.08 L 129.33,56.69 L 130.35,55.95 L 130.94,55.59 L 132.18,54.89 L 132.91,54.52 L 137.09,52.14 L 138.49,51.28 L 139.10,50.87 L 140.27,50.08 L 140.71,49.75 L 143.92,47.34 L 139.71,43.36 L 134.47,38.72 L 130.96,35.90 M 43.62,105.93 L 40.89,104.45 L 41.29,104.62 L 42.24,104.98 L 42.70,105.05 L 43.60,105.12 L 44.08,105.04 L 45.09,104.80 L 45.68,104.55 L 46.95,103.97 L 47.56,103.64 M 63.58,78.71 L 63.03,80.40 L 62.17,84.05 L 61.31,89.76 L 60.71,96.01 L 53.19,100.37 L 54.11,99.83 L 60.72,95.94 L 61.31,89.72 L 62.18,84.03 L 63.03,80.39 L 63.59,78.70 L 64.11,77.24 M 28.25,97.46 L 21.15,93.43 L 10.79,87.50 L 21.15,93.43 M 101.16,66.28 L 101.36,67.51 L 101.80,70.17 L 102.08,71.67 L 102.21,72.30 L 102.73,74.53 L 103.03,75.30 L 103.66,76.65 L 104.07,77.15 L 104.97,78.06 L 105.58,78.50 L 106.97,79.55 L 108.08,80.42 L 108.69,80.91 L 109.23,81.37 L 107.26,79.85 L 106.70,79.47 L 105.78,78.80 L 105.34,78.48 L 104.64,77.87 L 103.98,77.24 L 103.10,75.66 L 102.90,75.21 L 102.55,74.06 L 102.39,73.45 L 102.06,71.91 L 101.90,71.08 L 101.55,69.03 L 100.96,65.25 L 100.86,64.65 M 81.71,67.54 L 76.04,67.00 L 75.35,67.00 L 76.04,67.00 M 98.99,57.59 L 99.10,57.84 L 98.90,57.50 M 97.12,57.67 L 97.18,57.62 L 97.38,57.56 M 126.22,32.47 L 127.48,33.37 L 125.88,32.24 M 119.92,28.40 L 120.77,28.94 L 119.64,28.24 M 113.54,24.80 L 115.67,25.99 L 112.95,24.51 M 98.38,18.32 L 100.56,19.05 L 104.91,20.78 L 107.08,21.68 L 111.39,23.73 L 112.35,24.21 L 110.76,23.44 L 106.56,21.47 L 104.45,20.61 L 100.22,18.95 L 98.11,18.24 L 93.90,16.91 L 91.81,16.37 L 94.00,16.93 M 95.50,58.94 L 96.05,58.47 L 96.63,58.04 L 95.94,58.60 L 95.41,59.09 L 94.57,60.24 L 93.99,61.90 L 94.61,60.13 Z" fill="rgba(119,240,120,1)"/>
<path d="M 28.92,36.98 L 28.89,37.41 L 28.95,38.30 L 29.14,38.83 L 29.62,39.94 L 30.02,40.61 L 30.93,42.04 L 31.54,42.91 L 32.86,44.76 L 33.68,45.88 L 36.49,49.78 L 38.68,52.85 L 39.85,54.48 L 42.19,57.79 L 43.32,59.39 L 45.54,62.54 L 46.50,63.92 L 49.28,67.82 L 50.98,70.10 L 51.69,71.01 L 53.00,72.66 L 53.46,73.18 L 53.88,73.63 L 54.03,73.77 L 54.28,73.97 L 54.34,73.98 L 55.15,73.72 L 56.10,73.30 L 56.74,73.00 L 58.10,72.33 L 58.88,71.93 L 60.49,71.08 L 61.34,70.61 L 64.77,68.87 L 66.72,68.07 L 67.67,67.81 L 69.61,67.39 L 70.73,67.27 L 71.65,67.21 L 70.63,67.49 L 70.07,67.71 L 69.16,68.46 L 67.69,70.25 L 66.89,71.32 L 65.45,74.01 L 64.77,75.44 L 63.59,78.70 L 63.03,80.39 L 62.18,84.03 L 61.31,89.72 L 60.72,95.94 L 54.11,99.83 L 52.71,100.66 L 50.46,101.99 L 49.41,102.61 L 47.73,103.55 L 46.95,103.97 L 45.68,104.55 L 45.09,104.80 L 44.08,105.04 L 43.60,105.12 L 42.70,105.05 L 42.24,104.98 L 41.29,104.62 L 40.79,104.41 L 39.62,103.79 L 38.99,103.45 L 37.46,102.60 L 36.64,102.15 L 34.33,100.87 L 33.09,100.18 L 30.21,98.56 L 21.15,93.43 L 10.79,87.50 L 11.38,79.00 L 11.55,76.42 L 12.25,71.40 L 12.66,68.91 L 13.79,64.12 L 14.41,61.75 L 15.95,57.25 L 16.77,55.04 L 18.68,50.89 L 19.68,48.86 L 21.95,45.11 L 23.12,43.29 L 25.70,40.01 L 27.03,38.43 L 29.24,36.31 M 120.01,78.23 L 119.51,79.71 L 118.61,82.24 L 118.19,83.41 L 117.52,85.11 L 117.38,85.47 L 117.15,85.98 L 116.90,86.41 L 116.79,86.54 L 116.55,86.52 L 116.70,86.35 L 116.95,85.90 L 117.11,85.57 L 117.83,83.96 L 118.29,82.81 L 119.25,80.30 L 119.79,78.79 L 120.38,77.10 M 103.66,76.66 L 104.08,77.15 L 104.98,78.06 L 105.59,78.50 L 106.96,79.53 L 108.00,80.36 L 106.97,79.55 L 105.58,78.50 L 104.97,78.06 L 104.07,77.15 L 103.66,76.65 L 103.32,75.93 M 78.11,67.11 L 80.25,67.26 L 81.25,67.41 L 85.06,68.17 L 86.84,68.85 L 91.96,70.79 L 86.97,68.90 L 86.25,68.62 L 84.53,68.14 L 83.64,67.91 L 81.71,67.54 L 77.01,67.09 M 138.49,51.28 L 137.09,52.14 L 132.91,54.52 L 132.18,54.89 L 130.94,55.59 L 130.35,55.95 L 129.33,56.69 L 128.85,57.08 L 127.99,57.99 L 127.57,58.48 L 126.89,59.53 L 126.92,59.48 L 127.66,58.32 L 128.05,57.86 L 128.87,57.00 L 129.33,56.64 L 130.30,55.94 L 130.87,55.61 L 132.07,54.94 L 132.79,54.58 L 137.06,52.16 L 138.47,51.29 L 139.09,50.88 L 140.27,50.08 L 139.10,50.87 M 46.75,24.92 L 46.87,24.85 L 46.88,24.84 M 53.71,20.99 L 52.91,21.43 L 51.18,22.40 L 50.16,22.97 L 48.03,24.18 L 47.06,24.74 L 48.02,24.19 L 50.15,22.98 L 51.17,22.40 L 52.90,21.44 L 53.70,21.00 L 54.85,20.39 L 55.70,20.00 L 54.85,20.39 Z" fill="rgba(225,10,9,1)"/>
<path d="M 84.16,15.23 L 85.57,15.33 L 88.21,15.67 L 91.81,16.37 L 93.90,16.91 L 98.11,18.24 L 100.22,18.95 L 104.45,20.61 L 106.56,21.47 L 110.76,23.44 L 112.85,24.45 L 116.97,26.70 L 119.02,27.85 L 123.04,30.36 L 125.03,31.64 L 128.89,34.38 L 130.80,35.77 L 134.47,38.72 L 139.71,43.36 L 143.92,47.34 L 140.71,49.75 L 140.27,50.08 L 139.09,50.88 L 138.47,51.29 L 137.06,52.16 L 132.79,54.58 L 132.07,54.94 L 130.87,55.61 L 130.30,55.94 L 129.33,56.64 L 128.87,57.00 L 128.05,57.86 L 127.66,58.32 L 126.92,59.48 L 126.55,60.11 L 125.81,61.70 L 125.43,62.56 L 124.60,64.72 L 124.17,65.88 L 123.19,68.73 L 121.46,73.94 L 120.89,75.65 L 119.79,78.79 L 119.25,80.30 L 118.29,82.81 L 117.83,83.96 L 117.11,85.57 L 116.95,85.90 L 116.70,86.35 L 116.43,86.66 L 116.30,86.70 L 115.79,86.52 L 115.49,86.39 L 114.73,85.91 L 113.91,85.38 L 111.94,83.72 L 110.97,82.84 L 108.61,80.86 L 108.04,80.39 L 106.96,79.53 L 105.59,78.50 L 104.98,78.06 L 104.08,77.15 L 103.66,76.66 L 103.03,75.30 L 102.73,74.53 L 102.21,72.31 L 102.08,71.68 L 101.81,70.18 L 101.36,67.51 L 101.16,66.28 L 100.73,63.95 L 100.51,62.83 L 100.07,60.89 L 99.86,59.99 L 99.46,58.66 L 98.99,57.59 L 98.84,57.44 L 98.43,57.34 L 98.21,57.32 L 97.71,57.45 L 97.18,57.62 L 96.05,58.47 L 95.50,58.94 L 94.61,60.13 L 93.99,61.90 L 93.99,62.12 L 93.91,62.81 L 93.86,63.19 L 93.69,64.10 L 92.98,67.15 L 91.96,70.79 L 86.84,68.85 L 85.06,68.17 L 81.25,67.41 L 80.25,67.26 L 78.11,67.11 L 74.61,67.06 L 73.31,67.09 L 73.34,67.09 L 74.94,67.06 L 77.89,66.95 L 79.68,66.85 L 80.42,66.79 L 81.79,66.67 L 82.26,66.61 L 83.04,66.47 L 83.15,66.41 L 84.29,66.45 L 85.40,66.86 L 85.96,67.21 L 87.95,67.87 L 89.19,67.73 L 89.73,67.39 L 90.75,66.54 L 91.15,65.86 L 91.86,64.36 L 92.06,63.38 L 92.95,60.65 L 93.84,58.76 L 94.35,57.93 L 95.39,56.36 L 95.88,55.84 L 96.36,55.37 L 96.57,55.22 L 96.99,55.00 L 97.16,55.00 L 99.09,55.71 L 100.21,56.86 L 100.67,57.76 L 101.53,59.77 L 101.85,61.07 L 102.41,63.86 L 102.57,65.53 L 103.48,70.93 L 104.40,73.98 L 105.00,75.19 L 106.29,77.39 L 107.05,78.13 L 107.83,78.81 L 108.24,79.06 L 109.09,79.49 L 109.54,79.60 L 111.56,80.43 L 112.76,81.21 L 113.08,81.60 L 113.97,82.48 L 114.42,82.70 L 115.34,82.99 L 115.77,82.91 L 116.62,82.61 L 116.99,82.25 L 117.68,81.39 L 117.93,80.75 L 118.95,77.99 L 119.65,75.96 L 120.00,74.88 L 121.37,70.46 L 121.96,68.31 L 122.53,66.19 L 122.78,65.20 L 123.24,63.29 L 123.42,62.45 L 123.75,60.86 L 123.85,60.23 L 124.00,59.08 L 124.00,58.72 L 123.50,56.04 L 123.05,55.16 L 122.71,54.69 L 121.94,53.72 L 121.40,53.18 L 120.23,52.05 L 119.46,51.39 L 117.81,50.02 L 116.78,49.22 L 114.57,47.52 L 113.24,46.53 L 110.40,44.44 L 108.72,43.22 L 101.80,38.48 L 97.45,35.83 L 95.31,34.71 L 91.01,32.57 L 88.78,31.64 L 84.23,29.86 L 81.75,29.05 L 79.13,28.10 L 77.60,27.45 L 76.99,27.14 L 75.89,26.55 L 75.55,26.30 L 75.02,25.83 L 75.02,25.67 L 75.38,24.98 L 75.94,24.34 L 76.35,23.96 L 78.29,22.32 L 79.52,21.50 L 81.76,19.93 L 82.87,19.05 L 83.23,18.68 L 83.82,18.00 L 83.90,17.72 L 83.93,17.21 L 83.73,17.00 L 83.18,16.64 L 82.68,16.50 L 81.52,16.25 L 80.70,16.16 L 78.91,16.00 L 77.77,15.95 L 75.32,15.86 L 73.84,15.83 L 69.52,15.85 L 67.52,15.97 L 68.41,15.81 L 71.14,15.47 L 72.53,15.32 L 75.43,15.14 L 78.35,15.00 M 69.68,67.38 L 69.70,67.38 L 70.07,67.34 M 66.76,68.05 L 67.73,67.80 L 68.37,67.66 L 67.67,67.81 L 66.72,68.07 L 64.77,68.87 L 61.34,70.61 L 64.80,68.85 Z" fill="rgba(241,207,80,1)"/>
<path d="M 113.08,81.60 L 112.76,81.21 L 111.56,80.43 L 109.54,79.60 L 109.09,79.49 L 108.24,79.06 L 107.83,78.81 L 107.05,78.13 L 106.29,77.39 L 105.00,75.19 L 104.40,73.98 L 103.48,70.93 L 102.57,65.53 L 102.41,63.86 L 101.85,61.07 L 101.53,59.77 L 100.67,57.76 L 100.21,56.86 L 99.09,55.71 L 97.16,55.00 L 96.99,55.00 L 96.57,55.22 L 96.36,55.37 L 95.88,55.84 L 95.39,56.36 L 94.35,57.93 L 93.84,58.76 L 92.95,60.65 L 92.06,63.38 L 91.86,64.36 L 91.15,65.86 L 90.75,66.54 L 89.73,67.39 L 89.19,67.73 L 87.95,67.87 L 85.96,67.21 L 85.40,66.86 L 84.29,66.45 L 83.15,66.41 L 83.04,66.47 L 82.26,66.61 L 81.79,66.67 L 80.42,66.79 L 79.68,66.85 L 77.89,66.95 L 74.94,67.06 L 73.34,67.09 L 70.86,67.26 L 69.70,67.38 L 67.73,67.80 L 66.76,68.05 L 64.80,68.85 L 61.34,70.61 L 60.49,71.08 L 58.88,71.93 L 58.10,72.33 L 56.74,73.00 L 56.10,73.30 L 55.15,73.72 L 54.34,73.98 L 54.28,73.97 L 54.03,73.77 L 53.88,73.63 L 53.46,73.18 L 53.00,72.66 L 51.69,71.01 L 50.98,70.10 L 49.28,67.82 L 46.50,63.92 L 45.54,62.54 L 43.32,59.39 L 42.19,57.79 L 39.85,54.48 L 38.68,52.85 L 36.49,49.78 L 33.68,45.88 L 32.86,44.76 L 31.54,42.91 L 30.93,42.04 L 30.02,40.61 L 29.62,39.94 L 29.14,38.83 L 28.95,38.30 L 28.89,37.41 L 28.92,36.98 L 29.29,36.19 L 29.54,35.80 L 30.35,35.02 L 30.82,34.62 L 32.08,33.74 L 34.48,32.20 L 35.15,31.78 L 36.90,30.71 L 37.83,30.15 L 39.97,28.87 L 42.16,27.57 L 46.89,24.84 L 48.03,24.18 L 50.16,22.97 L 51.18,22.40 L 52.91,21.43 L 53.71,20.99 L 54.85,20.39 L 55.70,20.00 L 55.75,20.00 L 56.23,19.83 L 56.52,19.72 L 57.37,19.36 L 60.80,17.84 L 61.74,17.40 L 63.49,16.78 L 64.36,16.50 L 66.23,16.14 L 67.21,15.99 L 69.52,15.85 L 73.84,15.83 L 75.32,15.86 L 77.77,15.95 L 78.91,16.00 L 80.70,16.16 L 81.52,16.25 L 82.68,16.50 L 83.18,16.64 L 83.73,17.00 L 83.93,17.21 L 83.90,17.72 L 83.82,18.00 L 83.23,18.68 L 82.87,19.05 L 81.76,19.93 L 79.52,21.50 L 78.29,22.32 L 76.35,23.96 L 75.94,24.34 L 75.38,24.98 L 75.02,25.67 L 75.02,25.83 L 75.55,26.30 L 75.89,26.55 L 76.99,27.14 L 77.60,27.45 L 79.13,28.10 L 81.75,29.05 L 84.23,29.86 L 88.78,31.64 L 91.01,32.57 L 95.31,34.71 L 97.45,35.83 L 101.80,38.48 L 108.72,43.22 L 110.40,44.44 L 113.24,46.53 L 114.57,47.52 L 116.78,49.22 L 117.81,50.02 L 119.46,51.39 L 120.23,52.05 L 121.40,53.18 L 121.94,53.72 L 122.71,54.69 L 123.05,55.16 L 123.50,56.04 L 124.00,58.72 L 124.00,59.08 L 123.85,60.23 L 123.75,60.86 L 123.42,62.45 L 123.24,63.29 L 122.78,65.20 L 122.53,66.19 L 121.96,68.31 L 121.37,70.46 L 120.00,74.88 L 119.65,75.96 L 118.95,77.99 L 117.93,80.75 L 117.68,81.39 L 116.99,82.25 L 116.62,82.61 L 115.77,82.91 L 115.34,82.99 L 114.42,82.70 L 113.97,82.48 Z" fill="rgba(249,161,9,1)"/>
</g>
</svg>